<svg width="300" height="222" viewBox="0 0 300 222" fill="none" xmlns="http://www.w3.org/2000/svg">
<g clip-path="url(#clip0_11_171)">
<path d="M272.907 169.637C269.012 181.055 263.606 192.336 256.225 202.91C256.062 203.148 255.896 203.381 255.728 203.619L233.599 196.838C233.695 196.609 233.8 196.353 233.911 196.073C240.584 179.562 280.724 78.9292 275.963 58.1575C276.413 59.8622 291.137 116.264 272.907 169.637Z" fill="#E6E6E6"/>
<path d="M260.494 204.218C260.229 204.425 259.955 204.629 259.679 204.829L243.078 199.742C243.273 199.557 243.499 199.338 243.76 199.09C248.019 194.981 260.671 182.67 272.907 169.637C286.056 155.631 298.728 140.795 300 134.411C299.765 135.866 292.32 180.165 260.494 204.218Z" fill="#E6E6E6"/>
<path d="M262.543 52.3553H261.332V19.193C261.332 14.1027 259.31 9.22087 255.711 5.62149C252.111 2.02211 247.229 0 242.139 0H171.88C166.79 0 161.908 2.02211 158.308 5.62149C154.709 9.22087 152.687 14.1027 152.687 19.193V201.125C152.687 206.215 154.709 211.097 158.308 214.696C161.908 218.295 166.79 220.318 171.88 220.318H242.139C247.229 220.318 252.111 218.295 255.71 214.696C259.31 211.097 261.332 206.215 261.332 201.125V75.9608H262.543L262.543 52.3553Z" fill="#3F3D56"/>
<path d="M242.914 4.99292H233.742C234.164 6.027 234.326 7.149 234.212 8.26005C234.098 9.3711 233.712 10.4371 233.089 11.3641C232.467 12.2911 231.625 13.0506 230.639 13.5758C229.654 14.101 228.554 14.3757 227.437 14.3757H187.187C186.07 14.3756 184.97 14.1009 183.985 13.5757C182.999 13.0505 182.158 12.2911 181.535 11.3642C180.912 10.4373 180.527 9.37151 180.413 8.26061C180.299 7.14972 180.46 6.02785 180.882 4.99383H172.315C168.513 4.99383 164.867 6.50397 162.179 9.19203C159.491 11.8801 157.981 15.5259 157.981 19.3274V200.991C157.981 204.793 159.491 208.439 162.179 211.127C164.867 213.815 168.513 215.325 172.315 215.325H242.911C246.712 215.325 250.358 213.815 253.046 211.127C255.734 208.439 257.244 204.793 257.244 200.991V200.991V19.3265C257.244 15.525 255.734 11.8792 253.046 9.19113C250.358 6.50306 246.712 4.99292 242.911 4.99292L242.914 4.99292Z" fill="white"/>
<path d="M215.505 192.507C216.201 188.216 213.287 184.173 208.996 183.477C204.705 182.78 200.662 185.694 199.966 189.985C199.27 194.276 202.184 198.319 206.475 199.015C210.765 199.712 214.808 196.798 215.505 192.507Z" fill="#E6E6E6"/>
<path d="M251.129 100.04H164.097V117.223H251.129V100.04Z" fill="#E6E6E6"/>
<path d="M165.952 115.368H249.274V101.896H165.952V115.368Z" fill="white"/>
<path d="M173.246 103.387C174.261 103.387 175.254 103.688 176.098 104.252C176.942 104.816 177.6 105.618 177.988 106.556C178.377 107.494 178.478 108.526 178.28 109.521C178.082 110.517 177.593 111.431 176.876 112.149C176.158 112.867 175.243 113.356 174.248 113.554C173.252 113.752 172.22 113.65 171.282 113.262C170.344 112.873 169.542 112.216 168.978 111.371C168.414 110.527 168.113 109.535 168.113 108.52C168.113 107.846 168.246 107.178 168.504 106.556C168.762 105.933 169.14 105.367 169.617 104.89C170.093 104.414 170.659 104.036 171.282 103.778C171.905 103.52 172.572 103.387 173.246 103.387Z" fill="#071959"/>
<path d="M236.177 106.511H185.52V107.627H236.177V106.511Z" fill="#E6E6E6"/>
<path d="M236.177 109.412H185.52V110.528H236.177V109.412Z" fill="#E6E6E6"/>
<path d="M251.129 124.561H164.097V141.744H251.129V124.561Z" fill="#E6E6E6"/>
<path d="M165.952 139.889H249.274V126.417H165.952V139.889Z" fill="white"/>
<path d="M173.246 138.174C176.081 138.174 178.379 135.876 178.379 133.041C178.379 130.206 176.081 127.908 173.246 127.908C170.411 127.908 168.113 130.206 168.113 133.041C168.113 135.876 170.411 138.174 173.246 138.174Z" fill="#071959"/>
<path d="M236.177 131.032H185.52V132.148H236.177V131.032Z" fill="#E6E6E6"/>
<path d="M236.177 133.933H185.52V135.049H236.177V133.933Z" fill="#E6E6E6"/>
<path d="M251.129 149.081H164.097V166.265H251.129V149.081Z" fill="#E6E6E6"/>
<path d="M165.952 164.409H249.274V150.938H165.952V164.409Z" fill="white"/>
<path d="M173.246 162.695C176.081 162.695 178.379 160.397 178.379 157.562C178.379 154.727 176.081 152.429 173.246 152.429C170.411 152.429 168.113 154.727 168.113 157.562C168.113 160.397 170.411 162.695 173.246 162.695Z" fill="#071959"/>
<path d="M236.177 155.553H185.52V156.669H236.177V155.553Z" fill="#E6E6E6"/>
<path d="M236.177 158.454H185.52V159.57H236.177V158.454Z" fill="#E6E6E6"/>
<path d="M207.613 82.9227C220.988 82.9227 231.831 72.0798 231.831 58.7044C231.831 45.3291 220.988 34.4862 207.613 34.4862C194.237 34.4862 183.395 45.3291 183.395 58.7044C183.395 72.0798 194.237 82.9227 207.613 82.9227Z" fill="#071959"/>
<path d="M219.419 51.0165V66.3923C219.419 66.5366 219.391 66.6794 219.336 66.8127C219.28 66.9459 219.199 67.067 219.097 67.169C218.995 67.271 218.874 67.3519 218.741 67.4071C218.608 67.4622 218.465 67.4906 218.321 67.4906H196.905C196.76 67.4906 196.618 67.4622 196.484 67.4071C196.351 67.3519 196.23 67.271 196.128 67.169C196.026 67.067 195.945 66.9459 195.89 66.8127C195.835 66.6794 195.806 66.5366 195.806 66.3923V51.0165C195.806 50.8909 195.828 50.7662 195.872 50.6486C195.938 50.461 196.054 50.295 196.207 50.1686C196.361 50.0422 196.546 49.9604 196.743 49.932C196.796 49.9232 196.85 49.9186 196.905 49.9183H218.321C218.375 49.9186 218.429 49.9232 218.483 49.932C218.679 49.9604 218.865 50.0422 219.018 50.1686C219.172 50.2949 219.287 50.461 219.353 50.6486C219.397 50.7662 219.42 50.8909 219.419 51.0165Z" fill="white"/>
<path d="M219.353 50.6486L207.939 59.1437C207.845 59.215 207.731 59.2535 207.613 59.2535C207.495 59.2535 207.38 59.215 207.286 59.1437L195.872 50.6486C195.938 50.461 196.054 50.295 196.207 50.1686C196.361 50.0423 196.546 49.9604 196.743 49.932L207.613 58.0207L218.483 49.932C218.68 49.9604 218.865 50.0422 219.018 50.1686C219.172 50.2949 219.288 50.461 219.353 50.6486Z" fill="#071959"/>
<path d="M66.162 78.4379C66.162 85.9481 73.1063 84.8121 81.6725 84.8121C90.2388 84.8121 97.1831 85.9481 97.1831 78.4379C97.1831 70.9278 93.791 57.6155 81.6725 57.6155C69.1366 57.6155 66.162 70.9278 66.162 78.4379Z" fill="#2F2E41"/>
<path d="M114.733 215.626L119.691 214.028L115.886 194.141L108.568 196.501L114.733 215.626Z" fill="#A0616A"/>
<path d="M112.946 214.415L122.711 211.267L122.712 211.267C123.529 211.004 124.39 210.904 125.246 210.973C126.102 211.042 126.935 211.28 127.7 211.671C128.464 212.063 129.143 212.601 129.699 213.255C130.255 213.91 130.677 214.667 130.941 215.484L131.006 215.687L115.017 220.84L112.946 214.415Z" fill="#2F2E41"/>
<path d="M53.8665 215.79L59.0764 215.79L61.5549 195.695L53.8656 195.695L53.8665 215.79Z" fill="#A0616A"/>
<path d="M52.5378 214.089L62.7976 214.089H62.798C63.6567 214.089 64.5069 214.258 65.3002 214.586C66.0935 214.915 66.8143 215.397 67.4214 216.004C68.0286 216.611 68.5102 217.332 68.8388 218.125C69.1674 218.918 69.3365 219.768 69.3365 220.627V220.84L52.5381 220.84L52.5378 214.089Z" fill="#2F2E41"/>
<path d="M47.1407 138.312C46.7286 137.813 46.4218 137.235 46.2385 136.614C46.0553 135.993 45.9995 135.341 46.0744 134.698C46.1494 134.055 46.3535 133.434 46.6747 132.872C46.9958 132.309 47.4272 131.818 47.9431 131.426C48.1323 131.284 48.3323 131.156 48.5411 131.045L65.5351 91.0764C65.7009 90.5961 65.9603 90.1534 66.2982 89.7739C66.6361 89.3943 67.0458 89.0855 67.5037 88.8653C67.9616 88.645 68.4586 88.5176 68.966 88.4905C69.4735 88.4634 69.9812 88.5371 70.46 88.7074C70.9388 88.8776 71.379 89.141 71.7554 89.4824C72.1318 89.8238 72.4369 90.2363 72.6529 90.6963C72.8689 91.1562 72.9917 91.6543 73.0141 92.162C73.0366 92.6696 72.9582 93.1767 72.7836 93.6539L55.2834 133.42C55.723 134.483 55.7665 135.669 55.4059 136.761C55.0453 137.854 54.3046 138.78 53.3186 139.373C52.3325 139.965 51.1665 140.184 50.0328 139.989C48.899 139.795 47.8728 139.2 47.1407 138.312Z" fill="#A0616A"/>
<path d="M109.981 142.322C109.005 141.728 108.273 140.803 107.921 139.715C107.569 138.627 107.619 137.449 108.062 136.395L90.5561 96.6153C90.3836 96.1386 90.307 95.6325 90.3307 95.126C90.3544 94.6196 90.478 94.1229 90.6943 93.6644C90.9107 93.2059 91.2155 92.7948 91.5914 92.4545C91.9672 92.1142 92.4065 91.8516 92.8842 91.6817C93.3618 91.5119 93.8684 91.4381 94.3746 91.4646C94.8809 91.4912 95.3769 91.6176 95.8342 91.8365C96.2914 92.0554 96.7009 92.3625 97.0391 92.7402C97.3772 93.1179 97.6374 93.5588 97.8046 94.0374L114.804 134.019C115.013 134.131 115.213 134.259 115.402 134.401C115.918 134.792 116.349 135.284 116.67 135.846C116.991 136.409 117.196 137.03 117.271 137.673C117.345 138.316 117.29 138.968 117.106 139.589C116.923 140.21 116.616 140.788 116.204 141.287C115.752 141.834 115.184 142.275 114.542 142.577C113.899 142.879 113.198 143.034 112.488 143.033C111.603 143.035 110.734 142.788 109.981 142.322Z" fill="#A0616A"/>
<path d="M86.7307 83.5206C91.7886 80.7557 93.6474 74.4141 90.8825 69.3563C88.1176 64.2984 81.776 62.4395 76.7181 65.2044C71.6602 67.9693 69.8014 74.3109 72.5663 79.3688C75.3312 84.4267 81.6728 86.2855 86.7307 83.5206Z" fill="#A0616A"/>
<path d="M67.025 118.757L64.9549 94.7117C64.8673 93.6942 65.0084 92.6701 65.3679 91.7142C65.7274 90.7584 66.2962 89.8951 67.0326 89.1875C67.769 88.48 68.6544 87.9462 69.6239 87.6252C70.5933 87.3042 71.6223 87.2042 72.6355 87.3324L91.8698 89.7671C93.6313 89.9862 95.2384 90.8824 96.3506 92.2658C97.4628 93.6493 97.9927 95.4114 97.8282 97.1788C97.0644 105.771 94.9332 120.855 89.2408 125.349L89.1539 125.417L67.025 118.757Z" fill="#2F2E41"/>
<path d="M61.4087 203.631L53.429 202.685C52.9584 202.636 52.5231 202.413 52.2076 202.06C51.8921 201.708 51.7191 201.25 51.7223 200.777C51.7398 196.937 51.7299 193.004 51.7205 189.201C51.639 156.617 51.562 125.84 66.9089 117.347L66.9918 117.301L89.313 125.028L90.1676 139.982L108.288 165.653C109.787 167.774 110.915 170.134 111.625 172.632L118.358 196.283C118.429 196.532 118.448 196.793 118.415 197.05C118.382 197.308 118.297 197.555 118.165 197.779C118.033 198.002 117.858 198.196 117.648 198.349C117.439 198.502 117.201 198.611 116.948 198.67L109.1 200.481C108.648 200.585 108.174 200.521 107.765 200.301C107.356 200.081 107.041 199.72 106.879 199.286L96.3632 173.104L74.9953 150.08C74.9146 149.996 74.8125 149.936 74.7002 149.907C74.5879 149.877 74.4695 149.878 74.3579 149.911C74.2463 149.943 74.1458 150.006 74.0672 150.091C73.9885 150.177 73.9348 150.282 73.9117 150.396L63.4894 202.108C63.3961 202.576 63.1307 202.992 62.7454 203.274C62.3602 203.556 61.8832 203.683 61.4087 203.631Z" fill="#2F2E41"/>
<path d="M93.7835 73.3387H89.6554L87.8342 68.2393L87.4701 73.3387H85.497L84.4346 70.364L84.2222 73.3387H69.5615C69.5615 71.8878 69.8473 70.451 70.4025 69.1106C70.9578 67.7701 71.7716 66.5521 72.7976 65.5261C73.8235 64.5002 75.0415 63.6863 76.382 63.1311C77.7225 62.5758 79.1592 62.29 80.6101 62.29H82.7349C84.1858 62.29 85.6225 62.5758 86.963 63.1311C88.3035 63.6863 89.5215 64.5002 90.5474 65.5261C91.5734 66.5521 92.3872 67.7701 92.9425 69.1106C93.4977 70.451 93.7835 71.8878 93.7835 73.3387Z" fill="#2F2E41"/>
<path d="M296.371 221.089H0.302728C0.22244 221.089 0.145439 221.057 0.0886668 221C0.0318942 220.943 0 220.866 0 220.786C0 220.706 0.0318942 220.629 0.0886668 220.572C0.145439 220.515 0.22244 220.483 0.302728 220.483H296.371C296.451 220.483 296.528 220.515 296.585 220.572C296.642 220.629 296.674 220.706 296.674 220.786C296.674 220.866 296.642 220.943 296.585 221C296.528 221.057 296.451 221.089 296.371 221.089Z" fill="#CACACA"/>
</g>
<defs>
<clipPath id="clip0_11_171">
<rect width="300" height="221.089" fill="white"/>
</clipPath>
</defs>
</svg>
