<svg width="31" height="34" viewBox="0 0 31 34" fill="none" xmlns="http://www.w3.org/2000/svg">
<path d="M0 34C0 30.5648 1.63303 27.2703 4.53984 24.8413C7.44666 22.4122 11.3891 21.0476 15.5 21.0476C19.6109 21.0476 23.5533 22.4122 26.4602 24.8413C29.367 27.2703 31 30.5648 31 34H27.125C27.125 31.4236 25.9002 28.9527 23.7201 27.131C21.54 25.3092 18.5831 24.2857 15.5 24.2857C12.4169 24.2857 9.45999 25.3092 7.27988 27.131C5.09977 28.9527 3.875 31.4236 3.875 34H0ZM15.5 19.4286C9.07719 19.4286 3.875 15.0814 3.875 9.71429C3.875 4.34714 9.07719 0 15.5 0C21.9228 0 27.125 4.34714 27.125 9.71429C27.125 15.0814 21.9228 19.4286 15.5 19.4286ZM15.5 16.1905C19.7819 16.1905 23.25 13.2924 23.25 9.71429C23.25 6.13619 19.7819 3.2381 15.5 3.2381C11.2181 3.2381 7.75 6.13619 7.75 9.71429C7.75 13.2924 11.2181 16.1905 15.5 16.1905Z" fill="#05113B"/>
</svg>
